<svg width="40" height="40" viewBox="0 0 40 40" fill="none" xmlns="http://www.w3.org/2000/svg">
<path d="M20.0006 33.8453C19.7723 33.8453 19.5559 33.7439 19.4097 33.5685L11.7174 24.3377C11.5365 24.1207 11.4892 23.8219 11.5941 23.5596L14.671 15.8673C14.7879 15.5753 15.0707 15.3838 15.3852 15.3838H24.616C24.9305 15.3838 25.2135 15.5753 25.3302 15.8673L28.4072 23.5596C28.512 23.8219 28.4647 24.1207 28.2839 24.3377L20.5915 33.5685C20.4454 33.7439 20.2289 33.8453 20.0006 33.8453ZM13.1929 23.7052L20.0006 31.8746L26.8084 23.7052L24.0952 16.9223H15.9061L13.1929 23.7052Z" fill="white"/>
<path d="M26.924 16.9224H13.0778C12.653 16.9224 12.3086 16.578 12.3086 16.1532V11.5378C12.3086 11.1129 12.653 10.7686 13.0778 10.7686H26.924C27.3487 10.7686 27.6932 11.1129 27.6932 11.5378V16.1532C27.6932 16.578 27.3487 16.9224 26.924 16.9224ZM13.8471 15.3839H26.1547V12.307H13.8471V15.3839Z" fill="white"/>
<path d="M23.0774 12.3073C22.6526 12.3073 22.3081 11.9629 22.3081 11.5381V3.07655H17.6928V11.5381C17.6928 11.9629 17.3484 12.3073 16.9235 12.3073C16.4987 12.3073 16.1543 11.9629 16.1543 11.5381V2.30732C16.1543 1.88247 16.4987 1.53809 16.9235 1.53809H23.0774C23.5021 1.53809 23.8466 1.88247 23.8466 2.30732V11.5381C23.8466 11.9629 23.5021 12.3073 23.0774 12.3073Z" fill="white"/>
<path d="M20.0011 26.1535C18.7286 26.1535 17.6934 25.1182 17.6934 23.8458C17.6934 22.5733 18.7286 21.5381 20.0011 21.5381C21.2735 21.5381 22.3087 22.5733 22.3087 23.8458C22.3087 25.1182 21.2735 26.1535 20.0011 26.1535ZM20.0011 23.0765C19.5769 23.0765 19.2318 23.4216 19.2318 23.8458C19.2318 24.2699 19.5769 24.615 20.0011 24.615C20.4252 24.615 20.7703 24.2699 20.7703 23.8458C20.7703 23.4216 20.4252 23.0765 20.0011 23.0765Z" fill="white"/>
<path d="M19.9997 33.846C19.5749 33.846 19.2305 33.5015 19.2305 33.0768V25.3845C19.2305 24.9597 19.5749 24.6152 19.9997 24.6152C20.4245 24.6152 20.7689 24.9597 20.7689 25.3845V33.0768C20.7689 33.5015 20.4245 33.846 19.9997 33.846Z" fill="white"/>
<path d="M21.5394 14.6146H13.0778C12.653 14.6146 12.3086 14.2702 12.3086 13.8454C12.3086 13.4206 12.653 13.0762 13.0778 13.0762H21.5394C21.9641 13.0762 22.3086 13.4206 22.3086 13.8454C22.3086 14.2702 21.9641 14.6146 21.5394 14.6146Z" fill="white"/>
<path d="M22.3084 38.4616H17.6931C17.2682 38.4616 16.9238 38.1171 16.9238 37.6924V32.905C16.9238 32.4802 17.2682 32.1357 17.6931 32.1357C18.1179 32.1357 18.4623 32.4802 18.4623 32.905V36.9231H21.5393L21.5396 32.9049C21.5396 32.4801 21.8841 32.1357 22.3088 32.1357H22.3089C22.7337 32.1357 23.0781 32.4802 23.0781 32.9051L23.0777 37.6924C23.0777 38.1172 22.7332 38.4616 22.3084 38.4616Z" fill="white"/>
<path d="M17.6922 36.1537H5.38447C4.95962 36.1537 4.61523 35.8092 4.61523 35.3845C4.61523 34.9597 4.95962 34.6152 5.38447 34.6152H17.6922C18.117 34.6152 18.4614 34.9597 18.4614 35.3845C18.4614 35.8092 18.117 36.1537 17.6922 36.1537Z" fill="white"/>
<path d="M3.84675 37.6925C2.57429 37.6925 1.53906 36.6573 1.53906 35.3848C1.53906 34.1124 2.57429 33.0771 3.84675 33.0771C5.11922 33.0771 6.15445 34.1124 6.15445 35.3848C6.15445 36.6573 5.11922 37.6925 3.84675 37.6925ZM3.84675 34.6156C3.4226 34.6156 3.07752 34.9607 3.07752 35.3848C3.07752 35.809 3.4226 36.1541 3.84675 36.1541C4.27091 36.1541 4.61599 35.809 4.61599 35.3848C4.61599 34.9607 4.27091 34.6156 3.84675 34.6156Z" fill="white"/>
<path d="M34.616 36.1537H22.3083C21.8835 36.1537 21.5391 35.8092 21.5391 35.3845C21.5391 34.9597 21.8835 34.6152 22.3083 34.6152H34.616C35.0408 34.6152 35.3852 34.9597 35.3852 35.3845C35.3852 35.8092 35.0408 36.1537 34.616 36.1537Z" fill="white"/>
<path d="M36.1553 37.6925C34.8829 37.6925 33.8477 36.6573 33.8477 35.3848C33.8477 34.1124 34.8829 33.0771 36.1553 33.0771C37.4278 33.0771 38.463 34.1124 38.463 35.3848C38.463 36.6573 37.4278 37.6925 36.1553 37.6925ZM36.1553 34.6156C35.7312 34.6156 35.3861 34.9607 35.3861 35.3848C35.3861 35.809 35.7312 36.1541 36.1553 36.1541C36.5795 36.1541 36.9246 35.809 36.9246 35.3848C36.9246 34.9607 36.5795 34.6156 36.1553 34.6156Z" fill="white"/>
<path d="M20.0015 33.8459C11.0943 33.8459 3.84766 26.5993 3.84766 17.6921C3.84766 17.2672 4.19204 16.9229 4.61689 16.9229C5.04173 16.9229 5.38612 17.2672 5.38612 17.6921C5.38612 25.7511 11.9425 32.3075 20.0015 32.3075C28.0605 32.3075 34.6169 25.7511 34.6169 17.6921C34.6169 17.2672 34.9613 16.9229 35.3861 16.9229C35.8109 16.9229 36.1553 17.2672 36.1553 17.6921C36.1553 26.5993 28.9087 33.8459 20.0015 33.8459Z" fill="white"/>
<path d="M6.92368 18.4615H2.30829C1.88345 18.4615 1.53906 18.1171 1.53906 17.6922V13.0768C1.53906 12.652 1.88345 12.3076 2.30829 12.3076H6.92368C7.34852 12.3076 7.69291 12.652 7.69291 13.0768V17.6922C7.69291 18.1171 7.34852 18.4615 6.92368 18.4615ZM3.07752 16.923H6.15445V13.8461H3.07752V16.923Z" fill="white"/>
<path d="M37.6932 18.4615H33.0778C32.6531 18.4615 32.3086 18.1171 32.3086 17.6922V13.0768C32.3086 12.652 32.6531 12.3076 33.0778 12.3076H37.6932C38.118 12.3076 38.4624 12.652 38.4624 13.0768V17.6922C38.4624 18.1171 38.118 18.4615 37.6932 18.4615ZM33.8471 16.923H36.924V13.8461H33.8471V16.923Z" fill="white"/>
</svg>
