<svg width="24" height="24" viewBox="0 0 24 24" fill="none" xmlns="http://www.w3.org/2000/svg">
<path d="M7 21H17C18.0609 21 19.0783 20.5786 19.8284 19.8284C20.5786 19.0783 21 18.0609 21 17V12.15C21 11.8848 20.8946 11.6304 20.7071 11.4429C20.5196 11.2554 20.2652 11.15 20 11.15C19.7348 11.15 19.4804 11.2554 19.2929 11.4429C19.1054 11.6304 19 11.8848 19 12.15V17C19 17.5304 18.7893 18.0391 18.4142 18.4142C18.0391 18.7893 17.5304 19 17 19H7C6.46957 19 5.96086 18.7893 5.58579 18.4142C5.21071 18.0391 5 17.5304 5 17V7C5 6.46957 5.21071 5.96086 5.58579 5.58579C5.96086 5.21071 6.46957 5 7 5H12C12.2652 5 12.5196 4.89464 12.7071 4.70711C12.8946 4.51957 13 4.26522 13 4C13 3.73478 12.8946 3.48043 12.7071 3.29289C12.5196 3.10536 12.2652 3 12 3H7C5.93913 3 4.92172 3.42143 4.17157 4.17157C3.42143 4.92172 3 5.93913 3 7V17C3 18.0609 3.42143 19.0783 4.17157 19.8284C4.92172 20.5786 5.93913 21 7 21Z" fill="#F9BD00"/>
<path d="M20.2902 4.29019L12.0002 12.5902L8.71019 9.29019C8.52188 9.10188 8.26649 8.99609 8.00019 8.99609C7.73388 8.99609 7.47849 9.10188 7.29019 9.29019C7.10188 9.47849 6.99609 9.73388 6.99609 10.0002C6.99609 10.132 7.02207 10.2626 7.07253 10.3844C7.12299 10.5063 7.19695 10.6169 7.29019 10.7102L11.2902 14.7102C11.3831 14.8039 11.4937 14.8783 11.6156 14.9291C11.7375 14.9798 11.8682 15.006 12.0002 15.006C12.1322 15.006 12.2629 14.9798 12.3848 14.9291C12.5066 14.8783 12.6172 14.8039 12.7102 14.7102L21.7102 5.71019C21.8985 5.52188 22.0043 5.26649 22.0043 5.00019C22.0043 4.73388 21.8985 4.47849 21.7102 4.29019C21.5219 4.10188 21.2665 3.99609 21.0002 3.99609C20.7339 3.99609 20.4785 4.10188 20.2902 4.29019Z" fill="#F9BD00"/>
</svg>
