<svg width="40" height="40" viewBox="0 0 40 40" fill="none" xmlns="http://www.w3.org/2000/svg">
<path d="M10.7013 25.1745C11.0748 24.9591 11.2027 24.4809 10.9872 24.1073C10.7715 23.7341 10.2936 23.6059 9.92003 23.8214C9.54649 24.0371 9.41832 24.5153 9.63408 24.8886C9.84953 25.2621 10.3277 25.3903 10.7013 25.1745Z" fill="white"/>
<path d="M7.49877 30.5663L11.4331 37.3812C12.2821 38.8533 14.1919 39.3984 15.7022 38.5253C17.1966 37.6616 17.7103 35.7521 16.8457 34.2565L14.5019 30.1964L16.5317 29.0245C16.9052 28.8085 17.0334 28.3309 16.8176 27.9573L15.8017 26.1977C15.9228 26.1742 16.7194 26.0179 30.7657 23.2625C32.5021 23.1682 33.5425 21.2691 32.6654 19.7509L30.069 15.2538L31.7282 12.7407C31.8912 12.4935 31.9009 12.1758 31.7529 11.9194L30.1904 9.21313C30.0424 8.95679 29.7613 8.80664 29.4668 8.82404L26.4612 9.00439L23.5788 4.01172C23.1613 3.28845 22.4133 2.85052 21.5784 2.84015C21.5683 2.83984 21.5585 2.83984 21.5485 2.83984C20.7416 2.83984 20.0091 3.24146 19.5752 3.92047L9.3695 16.9216L2.73467 20.7521C0.12511 22.2582 -0.778821 25.606 0.73302 28.2225C2.11425 30.6151 5.02623 31.5563 7.49877 30.5663ZM15.4928 35.038C15.9244 35.7845 15.6689 36.7397 14.9203 37.1721C14.1693 37.6064 13.2129 37.3397 12.7862 36.6002L8.87999 29.8336L11.5863 28.2711C16.1072 36.1025 15.4202 34.9126 15.4928 35.038ZM13.7207 28.843L12.9394 27.4898L14.2926 26.7086L15.0738 28.0617L13.7207 28.843ZM29.0787 10.4125L30.1584 12.2826L29.1955 13.7407L27.3346 10.5172L29.0787 10.4125ZM20.8819 4.7771C21.0916 4.43408 21.4242 4.39868 21.5591 4.40234C21.6925 4.40387 22.0248 4.44537 22.2253 4.79266L31.3122 20.5321C31.6083 21.0445 31.2485 21.6887 30.6549 21.7034C30.5484 21.7058 30.4993 21.725 30.2264 21.776L20.6143 5.12714C20.816 4.86774 20.842 4.84271 20.8819 4.7771ZM19.5746 6.4516L28.6056 22.094L14.9759 24.7673L10.8316 17.5893L19.5746 6.4516ZM2.08617 27.4413C1.74315 26.8477 1.56188 26.1739 1.56188 25.4921C1.56188 24.0987 2.31078 22.8011 3.51592 22.1053L9.60509 18.5897L13.5113 25.3554L7.42217 28.8713C5.55663 29.948 3.16313 29.3065 2.08617 27.4413Z" fill="white"/>
<path d="M8.27946 25.67C8.0637 25.2965 7.5858 25.1683 7.21226 25.3841L5.85912 26.1653C5.48619 26.3808 5.00737 26.2523 4.79192 25.8794C4.57616 25.5058 4.09825 25.3777 3.72472 25.5934C3.35118 25.8092 3.22301 26.2871 3.43877 26.6606C4.08177 27.7745 5.5161 28.1673 6.64037 27.5185L7.99351 26.7372C8.36705 26.5215 8.49522 26.0439 8.27946 25.67Z" fill="white"/>
<path d="M38.8388 4.51095L34.4855 6.93343C34.1086 7.14339 33.9728 7.61916 34.1828 7.99606C34.3921 8.37264 34.8676 8.50906 35.2454 8.29879L39.5984 5.8763C39.9756 5.66634 40.1111 5.19057 39.9011 4.81368C39.6915 4.43648 39.2157 4.30099 38.8388 4.51095Z" fill="white"/>
<path d="M38.3832 12.6031L35.3647 11.7944C34.9478 11.6827 34.5194 11.9299 34.4077 12.3468C34.296 12.7636 34.5435 13.1918 34.9603 13.3035L37.9791 14.1122C38.3985 14.2248 38.8248 13.9737 38.9359 13.5599C39.0476 13.143 38.8001 12.7145 38.3832 12.6031Z" fill="white"/>
<path d="M30.7974 1.67295L29.9878 4.69175C29.8761 5.10862 30.1233 5.53678 30.5401 5.64878C30.9567 5.76017 31.3852 5.51359 31.4972 5.09641L32.3065 2.07761C32.4182 1.66074 32.171 1.23228 31.7541 1.12058C31.3376 1.00889 30.9091 1.25608 30.7974 1.67295Z" fill="white"/>
</svg>
