<svg width="40" height="40" viewBox="0 0 40 40" fill="none" xmlns="http://www.w3.org/2000/svg">
<path d="M38.4008 30.5601H14.8808L14.0008 27.2801H33.2808C33.6008 27.2801 33.9208 27.0401 34.0008 26.8001L39.2008 13.7601C39.2808 13.5201 39.2808 13.2001 39.1208 13.0401C38.9608 12.8001 38.7208 12.7201 38.4808 12.7201H34.8808C34.4008 6.96008 29.6808 2.48008 23.9208 2.48008C18.1608 2.48008 23.9208 2.48008 23.8408 2.48008C18.2408 2.48008 13.3608 6.80008 12.9608 12.7201H10.0008L7.28078 2.72008C7.20078 2.32008 6.88078 2.08008 6.48078 2.08008H1.60078C1.12078 2.08008 0.800781 2.40008 0.800781 2.88008C0.800781 3.36008 1.12078 3.68008 1.60078 3.68008H5.92078L13.5208 31.5201C13.6008 31.8401 13.9208 32.0801 14.3208 32.0801H15.9208C15.5208 32.6401 15.2808 33.3601 15.2808 34.1601C15.2808 36.1601 16.9608 37.8401 18.9608 37.8401C20.9608 37.8401 22.6408 36.1601 22.6408 34.1601C22.6408 33.3601 22.4008 32.7201 22.0008 32.0801H30.7208C30.3208 32.6401 30.0808 33.3601 30.0808 34.1601C30.0808 36.1601 31.7608 37.8401 33.7608 37.8401C35.7608 37.8401 37.4408 36.1601 37.4408 34.1601C37.4408 33.3601 37.2008 32.7201 36.8008 32.0801H38.4008C38.8808 32.0801 39.2008 31.7601 39.2008 31.2801C39.2008 30.8001 38.8008 30.5601 38.4008 30.5601ZM33.2008 12.6401H29.8408C29.8408 11.8401 29.7608 10.9601 29.6008 10.2401H32.6408C32.9608 10.9601 33.1208 11.8401 33.2008 12.6401ZM29.6008 16.6401C29.7608 15.8401 29.8408 15.0401 29.8408 14.2401H33.2008C33.1208 15.1201 32.9608 15.9201 32.6408 16.6401H29.6008ZM31.9208 18.2401C30.9608 19.9201 29.4408 21.2001 27.6808 22.0001C28.4008 20.9601 28.9608 19.6801 29.2808 18.2401H31.9208ZM31.9208 8.64008H29.2808C28.8808 7.12008 28.3208 5.84008 27.6808 4.88008C29.4408 5.60008 30.9608 6.96008 31.9208 8.64008ZM24.7208 4.24008C25.9208 4.72008 27.0408 6.32008 27.6808 8.64008H24.7208V4.24008ZM24.7208 10.2401H28.0008C28.1608 10.9601 28.2408 11.7601 28.2408 12.6401H24.6408V10.2401H24.7208ZM24.7208 14.2401H28.3208C28.3208 15.1201 28.1608 15.9201 28.0808 16.6401H24.8008V14.2401H24.7208ZM24.7208 18.2401H27.6808C27.0408 20.5601 25.9208 22.1601 24.7208 22.6401V18.2401ZM23.1208 4.24008V8.64008H20.1608C20.8008 6.32008 21.9208 4.72008 23.1208 4.24008ZM19.7608 16.6401C19.6008 15.9201 19.5208 15.0401 19.5208 14.2401H23.1208V16.6401H19.7608ZM23.1208 18.2401V22.6401C21.9208 22.1601 20.8008 20.5601 20.1608 18.2401H23.1208ZM18.4808 18.2401C18.8808 19.7601 19.4408 21.0401 20.0808 22.0001C18.3208 21.2001 16.8008 19.8401 15.8408 18.2401H18.4808ZM15.1208 16.6401C14.8808 15.8401 14.6408 15.0401 14.5608 14.2401H17.9208C17.9208 15.0401 18.0008 15.9201 18.1608 16.6401H15.1208ZM19.5208 12.6401C19.5208 11.7601 19.6808 10.9601 19.7608 10.2401H23.0408V12.6401H19.5208ZM20.0808 4.80008C19.3608 5.84008 18.8008 7.12008 18.4808 8.56008H15.8408C16.8008 6.96008 18.3208 5.60008 20.0808 4.80008ZM15.1208 10.2401H18.1608C18.0008 11.0401 18.0008 11.8401 17.9208 12.6401H14.5608C14.6408 11.8401 14.8008 10.9601 15.1208 10.2401ZM13.5208 25.6801L10.4008 14.2401H12.9608C13.3608 20.0801 18.2408 24.4001 23.8408 24.4801H23.9208C29.5208 24.4801 34.4008 20.0801 34.8008 14.2401H37.2008L32.6408 25.6801H13.5208ZM18.8808 36.3201C17.7608 36.3201 16.8008 35.3601 16.8008 34.2401C16.8008 33.1201 17.7608 32.1601 18.8808 32.1601C20.0008 32.1601 20.9608 33.1201 20.9608 34.2401C20.9608 35.3601 20.0008 36.3201 18.8808 36.3201ZM33.6008 36.3201C32.4808 36.3201 31.5208 35.3601 31.5208 34.2401C31.5208 33.1201 32.4808 32.1601 33.6008 32.1601C34.7208 32.1601 35.6808 33.1201 35.6808 34.2401C35.6808 35.3601 34.8008 36.3201 33.6008 36.3201Z" fill="white"/>
</svg>
