<svg width="68" height="54" viewBox="0 0 68 54" fill="none" xmlns="http://www.w3.org/2000/svg">
<path d="M7.33268 53.6663C5.49935 53.6663 3.9299 53.0136 2.62435 51.708C1.31879 50.4025 0.666016 48.833 0.666016 46.9997V6.99967C0.666016 5.16634 1.31879 3.5969 2.62435 2.29134C3.9299 0.985786 5.49935 0.333008 7.33268 0.333008H60.666C62.4994 0.333008 64.0688 0.985786 65.3744 2.29134C66.6799 3.5969 67.3327 5.16634 67.3327 6.99967V46.9997C67.3327 48.833 66.6799 50.4025 65.3744 51.708C64.0688 53.0136 62.4994 53.6663 60.666 53.6663H7.33268ZM33.9994 30.333L7.33268 13.6663V46.9997H60.666V13.6663L33.9994 30.333ZM33.9994 23.6663L60.666 6.99967H7.33268L33.9994 23.6663ZM7.33268 13.6663V6.99967V46.9997V13.6663Z" fill="#F9BD00"/>
</svg>
