<svg width="40" height="40" viewBox="0 0 40 40" fill="none" xmlns="http://www.w3.org/2000/svg">
<path d="M32.8931 1.23047H6.52588C6.22261 1.23047 5.97656 1.47629 5.97656 1.77979V5.90103C5.97656 6.20453 6.22261 6.45035 6.52588 6.45035C6.82915 6.45035 7.0752 6.20453 7.0752 5.90103V2.3291H32.3438V37.6318H7.0752V8.24478C7.0752 7.94151 6.82915 7.69547 6.52588 7.69547C6.22261 7.69547 5.97656 7.94151 5.97656 8.24478V38.1812C5.97656 38.4846 6.22261 38.7305 6.52588 38.7305H32.8931C33.1963 38.7305 33.4424 38.4846 33.4424 38.1812V1.77979C33.4424 1.47629 33.1963 1.23047 32.8931 1.23047Z" fill="white"/>
<path d="M30.6958 32.2618C30.9991 32.2618 31.2451 32.016 31.2451 31.7125V3.97705C31.2451 3.67355 30.9991 3.42773 30.6958 3.42773H8.72314C8.41988 3.42773 8.17383 3.67355 8.17383 3.97705V35.9839C8.17383 36.2874 8.41988 36.5332 8.72314 36.5332H30.6958C30.9991 36.5332 31.2451 36.2874 31.2451 35.9839V34.0411C31.2451 33.7376 30.9991 33.4918 30.6958 33.4918C30.3925 33.4918 30.1465 33.7376 30.1465 34.0411V35.4346H9.27246V27.2108H10.3475C10.6508 27.2108 10.8968 26.9648 10.8968 26.6615C10.8968 26.358 10.6508 26.1122 10.3475 26.1122H9.27246V25.0136H30.1465V26.1122H12.6988C12.3956 26.1122 12.1495 26.358 12.1495 26.6615C12.1495 26.9648 12.3956 27.2108 12.6988 27.2108H30.1465V31.7125C30.1465 32.0155 30.3925 32.2618 30.6958 32.2618ZM23.6568 23.9149L22.21 21.9305L23.7172 19.8388L26.6565 23.9147H23.6568V23.9149ZM21.0823 22.2489C21.0862 22.2537 21.0896 22.2588 21.0933 22.2636L22.297 23.9149H12.7689L17.5035 17.4202C17.5069 17.4156 17.5145 17.4053 17.533 17.4053C17.5513 17.4053 17.5587 17.4156 17.5621 17.4202L21.0823 22.2489ZM28.011 23.9149L24.6078 19.1959C24.402 18.9111 24.0692 18.7408 23.7179 18.7408C23.3663 18.7408 23.034 18.9111 22.8275 19.1963L21.5293 20.9967L18.4499 16.7729C18.2371 16.4811 17.894 16.3067 17.5328 16.3067C17.1714 16.3067 16.8285 16.4811 16.6157 16.7729L11.4091 23.9149H9.27246V4.52637H30.1465V23.9149H28.011Z" fill="white"/>
<path d="M19.7104 8.94824C18.5594 8.94824 17.623 9.8846 17.623 11.0356C17.623 12.1867 18.5594 13.123 19.7104 13.123C20.8613 13.123 21.7979 12.1867 21.7979 11.0356C21.7979 9.8846 20.8613 8.94824 19.7104 8.94824ZM19.7104 12.0244C19.165 12.0244 18.7217 11.5808 18.7217 11.0356C18.7217 10.4907 19.165 10.0469 19.7104 10.0469C20.2556 10.0469 20.6992 10.4907 20.6992 11.0356C20.6992 11.5808 20.2556 12.0244 19.7104 12.0244Z" fill="white"/>
<path d="M26.2646 7.59717C26.2646 7.29367 26.0186 7.04785 25.7153 7.04785H13.7036C13.4003 7.04785 13.1543 7.29367 13.1543 7.59717C13.1543 7.90044 13.4003 8.14648 13.7036 8.14648H25.7153C26.0186 8.14648 26.2646 7.90044 26.2646 7.59717Z" fill="white"/>
<path d="M25.7153 29.2959H13.7036C13.4003 29.2959 13.1543 29.5415 13.1543 29.8452C13.1543 30.1483 13.4003 30.3945 13.7036 30.3945H25.7153C26.0186 30.3945 26.2646 30.1483 26.2646 29.8452C26.2646 29.5415 26.0186 29.2959 25.7153 29.2959Z" fill="white"/>
<path d="M25.7153 32.251H13.7036C13.4003 32.251 13.1543 32.4968 13.1543 32.8003C13.1543 33.104 13.4003 33.3496 13.7036 33.3496H25.7153C26.0186 33.3496 26.2646 33.104 26.2646 32.8003C26.2646 32.4968 26.0186 32.251 25.7153 32.251Z" fill="white"/>
<path d="M16.27 10.4863H11.5825C11.2793 10.4863 11.0332 10.7324 11.0332 11.0356C11.0332 11.3391 11.2793 11.585 11.5825 11.585H16.27C16.5733 11.585 16.8193 11.3391 16.8193 11.0356C16.8193 10.7324 16.5733 10.4863 16.27 10.4863Z" fill="white"/>
<path d="M27.8364 10.4863H23.1489C22.8457 10.4863 22.5996 10.7324 22.5996 11.0356C22.5996 11.3391 22.8457 11.585 23.1489 11.585H27.8364C28.1397 11.585 28.3857 11.3391 28.3857 11.0356C28.3857 10.7324 28.1399 10.4863 27.8364 10.4863Z" fill="white"/>
</svg>
