<svg width="80" height="80" viewBox="0 0 80 80" fill="none" xmlns="http://www.w3.org/2000/svg">
<mask id="mask0_28062_1139" style="mask-type:alpha" maskUnits="userSpaceOnUse" x="0" y="0" width="80" height="80">
<rect width="80" height="80" fill="#D9D9D9"/>
</mask>
<g mask="url(#mask0_28062_1139)">
<path d="M40.0057 39.5508C41.6643 39.5508 43.0823 38.9603 44.2596 37.7792C45.4369 36.5981 46.0256 35.1782 46.0256 33.5196C46.0256 31.861 45.435 30.443 44.2539 29.2657C43.0728 28.0883 41.653 27.4997 39.9943 27.4997C38.3357 27.4997 36.9178 28.0902 35.7404 29.2713C34.5631 30.4525 33.9744 31.8723 33.9744 33.5309C33.9744 35.1895 34.565 36.6075 35.7461 37.7848C36.9272 38.9622 38.3471 39.5508 40.0057 39.5508ZM40 65.0445C46.5213 59.207 51.5117 53.6076 54.9712 48.2464C58.4306 42.8853 60.1603 38.1898 60.1603 34.1598C60.1603 28.083 58.2297 23.0872 54.3686 19.1727C50.5075 15.2581 45.718 13.3008 40 13.3008C34.2821 13.3008 29.4925 15.2581 25.6314 19.1727C21.7703 23.0872 19.8398 28.083 19.8398 34.1598C19.8398 38.1898 21.5695 42.8853 25.0288 48.2464C28.4883 53.6076 33.4787 59.207 40 65.0445ZM40 71.6982C31.6112 64.429 25.3206 57.664 21.1283 51.4034C16.936 45.1428 14.8398 39.3949 14.8398 34.1598C14.8398 26.4676 17.3281 20.2401 22.3046 15.4773C27.281 10.7144 33.1795 8.33301 40 8.33301C46.8205 8.33301 52.719 10.7144 57.6954 15.4773C62.6719 20.2401 65.1602 26.4676 65.1602 34.1598C65.1602 39.3949 63.064 45.1428 58.8718 51.4034C54.6794 57.664 48.3888 64.429 40 71.6982Z" fill="#F9BD00"/>
</g>
</svg>
