<svg width="40" height="40" viewBox="0 0 40 40" fill="none" xmlns="http://www.w3.org/2000/svg">
<g clip-path="url(#clip0_28008_111)">
<path d="M39.1016 4.29688C39.597 4.29688 40 3.89383 40 3.39844V0.898438C40 0.403047 39.597 0 39.1016 0H36.6016C36.1062 0 35.7031 0.403047 35.7031 0.898438V1.5625H22.1484V0.898438C22.1484 0.403047 21.7454 0 21.25 0H18.75C18.2546 0 17.8516 0.403047 17.8516 0.898438V1.5625H4.29688V0.898438C4.29688 0.403047 3.89383 0 3.39844 0H0.898438C0.403047 0 0 0.403047 0 0.898438V3.39844C0 3.89383 0.403047 4.29688 0.898438 4.29688H1.5625V17.8516H0.898438C0.403047 17.8516 0 18.2546 0 18.75V21.25C0 21.7454 0.403047 22.1484 0.898438 22.1484H1.5625V35.7031H0.898438C0.403047 35.7031 0 36.1062 0 36.6016V39.1016C0 39.597 0.403047 40 0.898438 40H3.39844C3.89383 40 4.29688 39.597 4.29688 39.1016V38.4375H17.8516V39.1016C17.8516 39.597 18.2546 40 18.75 40H21.25C21.7454 40 22.1484 39.597 22.1484 39.1016V38.4375H35.7031V39.1016C35.7031 39.597 36.1062 40 36.6016 40H39.1016C39.597 40 40 39.597 40 39.1016V36.6016C40 36.1062 39.597 35.7031 39.1016 35.7031H38.4375V22.1484H39.1016C39.597 22.1484 40 21.7454 40 21.25V18.75C40 18.2546 39.597 17.8516 39.1016 17.8516H38.4375V4.29688H39.1016ZM36.875 1.17188H38.8281V3.125H36.875V1.17188ZM19.0234 1.17188H20.9766V3.125H19.0234V1.17188ZM1.17188 1.17188H3.125V3.125H1.17188V1.17188ZM1.17188 19.0234H3.125V20.9766H1.17188V19.0234ZM3.125 38.8281H1.17188V36.875H3.125V38.8281ZM20.9766 38.8281H19.0234V36.875H20.9766V38.8281ZM38.8281 38.8281H36.875V36.875H38.8281V38.8281ZM38.8281 20.9766H36.875V19.0234H38.8281V20.9766ZM37.2656 17.8516H36.6016C36.1062 17.8516 35.7031 18.2546 35.7031 18.75V21.25C35.7031 21.7454 36.1062 22.1484 36.6016 22.1484H37.2656V35.7031H36.6016C36.1062 35.7031 35.7031 36.1062 35.7031 36.6016V37.2656H22.1484V36.6016C22.1484 36.1062 21.7454 35.7031 21.25 35.7031H18.75C18.2546 35.7031 17.8516 36.1062 17.8516 36.6016V37.2656H4.29688V36.6016C4.29688 36.1062 3.89383 35.7031 3.39844 35.7031H2.73438V22.1484H3.39844C3.89383 22.1484 4.29688 21.7454 4.29688 21.25V18.75C4.29688 18.2546 3.89383 17.8516 3.39844 17.8516H2.73438V4.29688H3.39844C3.89383 4.29688 4.29688 3.89383 4.29688 3.39844V2.73438H17.8516V3.39844C17.8516 3.89383 18.2546 4.29688 18.75 4.29688H21.25C21.7454 4.29688 22.1484 3.89383 22.1484 3.39844V2.73438H35.7031V3.39844C35.7031 3.89383 36.1062 4.29688 36.6016 4.29688H37.2656V17.8516Z" fill="white"/>
<path d="M28.6738 8.29793C28.0828 7.27387 26.9809 6.6377 25.7983 6.6377H14.203C13.0203 6.6377 11.9185 7.27387 11.3276 8.29785L5.52907 18.3401C4.93821 19.3641 4.93821 20.6363 5.52915 21.6604L11.3275 31.7025C11.9185 32.7265 13.0203 33.3627 14.203 33.3627H25.7983C26.9809 33.3627 28.0827 32.7265 28.6736 31.7026L31.4441 26.9041C31.6059 26.6238 31.5099 26.2654 31.2296 26.1037C30.9491 25.942 30.5909 26.0379 30.4292 26.3182L28.5785 29.5236H11.4227L6.54407 21.0745C6.16165 20.4119 6.16165 19.5885 6.54399 18.926L11.2991 10.6908H15.3639C15.6875 10.6908 15.9499 10.4286 15.9499 10.1049C15.9499 9.78121 15.6875 9.51895 15.3639 9.51895H11.9757L12.3425 8.88371C12.7249 8.22121 13.4377 7.80957 14.203 7.80957H25.7983C26.5635 7.80957 27.2764 8.22121 27.6588 8.88379L28.0255 9.51895H18.0983C17.7747 9.51895 17.5124 9.78121 17.5124 10.1049C17.5124 10.4286 17.7747 10.6908 18.0983 10.6908H28.7022L33.4572 18.9259C33.8397 19.5885 33.8397 20.4119 33.4573 21.0744L31.8447 23.8674C31.6829 24.1476 31.7789 24.506 32.0591 24.6678C32.3392 24.8294 32.6977 24.7336 32.8595 24.4533L34.4722 21.6603C35.0631 20.6363 35.0631 19.3641 34.4721 18.34L28.6738 8.29793ZM27.9019 30.6955L27.6588 31.1167C27.2764 31.7792 26.5635 32.1908 25.7984 32.1908H14.203C13.4377 32.1908 12.7249 31.7792 12.3424 31.1165L12.0994 30.6955H27.9019Z" fill="white"/>
<path d="M9.94727 17.2432C9.62367 17.2432 9.36133 17.5055 9.36133 17.8291V22.0911C9.36133 22.4528 9.65539 22.7506 10.0166 22.7551C10.0937 22.7561 11.4359 22.753 11.4709 22.7529C11.7945 22.7511 12.0553 22.4873 12.0535 22.1636C12.0517 21.8411 11.7898 21.581 11.4677 21.581C11.4666 21.581 11.4654 21.581 11.4643 21.581C11.4568 21.5811 10.9555 21.5838 10.5333 21.5845V17.8292C10.5332 17.5055 10.2709 17.2432 9.94727 17.2432Z" fill="white"/>
<path d="M21.7533 18.4205C22.1196 18.3912 22.4712 18.4828 22.7714 18.6855C23.0396 18.8665 23.4037 18.7962 23.5849 18.528C23.766 18.2598 23.6955 17.8956 23.4273 17.7144C22.9046 17.3612 22.2932 17.2015 21.6595 17.2524C20.3148 17.3604 19.2299 18.4569 19.1359 19.8032C19.0818 20.5771 19.3424 21.3147 19.8693 21.8798C20.389 22.437 21.124 22.7566 21.8857 22.7566C23.2982 22.7566 24.3093 21.6577 24.3446 20.0848C24.3487 19.9098 24.2807 19.7373 24.1582 19.6118C24.0354 19.4862 23.8643 19.414 23.6886 19.414H22.4608C22.1372 19.414 21.8749 19.6763 21.8749 20C21.8749 20.3237 22.1372 20.5859 22.4608 20.5859H23.1007C22.9568 21.1288 22.588 21.5848 21.8857 21.5848C21.4413 21.5848 21.0296 21.4057 20.7263 21.0805C20.4234 20.7557 20.2737 20.331 20.3048 19.8848C20.359 19.112 20.9817 18.4824 21.7533 18.4205Z" fill="white"/>
<path d="M27.8817 22.7564C29.4017 22.7564 30.6384 21.5198 30.6384 19.9998C30.6384 18.4798 29.4017 17.2432 27.8817 17.2432C26.3617 17.2432 25.125 18.4798 25.125 19.9998C25.125 21.5198 26.3616 22.7564 27.8817 22.7564ZM27.8817 18.415C28.7556 18.415 29.4665 19.126 29.4665 19.9998C29.4665 20.8736 28.7555 21.5846 27.8817 21.5846C27.0079 21.5846 26.297 20.8736 26.297 19.9998C26.297 19.126 27.0078 18.415 27.8817 18.415Z" fill="white"/>
<path d="M12.834 19.9998C12.834 21.5198 14.0706 22.7564 15.5906 22.7564C17.1106 22.7564 18.3473 21.5198 18.3473 19.9998C18.3473 18.4798 17.1106 17.2432 15.5906 17.2432C14.0706 17.2432 12.834 18.4798 12.834 19.9998ZM15.5906 18.415C16.4645 18.415 17.1754 19.126 17.1754 19.9998C17.1754 20.8736 16.4645 21.5846 15.5906 21.5846C14.7168 21.5846 14.0059 20.8736 14.0059 19.9998C14.0059 19.126 14.7168 18.415 15.5906 18.415Z" fill="white"/>
<path d="M25.3587 13.895C25.3208 13.0373 24.604 12.3652 23.7268 12.3652H17.1094C16.6747 12.3652 16.2528 12.5455 15.9522 12.8597C15.6472 13.1784 15.49 13.597 15.5094 14.0385C15.5472 14.8963 16.264 15.5684 17.1412 15.5684H23.7586C24.1934 15.5684 24.6153 15.3881 24.9158 15.074C25.2209 14.7553 25.3782 14.3366 25.3587 13.895ZM24.0693 14.2638C23.9873 14.3494 23.8771 14.3965 23.7586 14.3965H17.1412C16.8969 14.3965 16.6901 14.2127 16.6801 13.9869C16.6749 13.868 16.717 13.7553 16.7988 13.6698C16.8807 13.5842 16.991 13.5371 17.1093 13.5371H23.7267C23.971 13.5371 24.1779 13.7209 24.1878 13.9466C24.1932 14.0657 24.1511 14.1783 24.0693 14.2638Z" fill="white"/>
<path d="M17.1413 27.7412H23.7587C24.1935 27.7412 24.6154 27.561 24.9159 27.2468C25.2209 26.9282 25.3782 26.5095 25.3587 26.0679C25.3208 25.2101 24.604 24.5381 23.7268 24.5381H17.1094C16.6747 24.5381 16.2528 24.7183 15.9522 25.0325C15.6472 25.3512 15.49 25.7699 15.5094 26.2114C15.5472 27.0692 16.264 27.7412 17.1413 27.7412ZM16.7989 25.8427C16.8808 25.7571 16.9911 25.71 17.1094 25.71H23.7268C23.9711 25.71 24.1779 25.8937 24.1879 26.1195C24.1931 26.2385 24.151 26.3511 24.0692 26.4366C23.9872 26.5222 23.877 26.5693 23.7586 26.5693H17.1411C16.8968 26.5693 16.69 26.3856 16.68 26.1597C16.6749 26.0407 16.7171 25.9282 16.7989 25.8427Z" fill="white"/>
</g>
<defs>
<clipPath id="clip0_28008_111">
<rect width="40" height="40" fill="white"/>
</clipPath>
</defs>
</svg>
