<svg width="40" height="40" viewBox="0 0 40 40" fill="none" xmlns="http://www.w3.org/2000/svg">
<path d="M12.0605 24.6064H8.72715C8.36352 24.6064 8.12109 24.8489 8.12109 25.2125C8.12109 25.5761 8.36352 25.8186 8.72715 25.8186H12.0605C12.4241 25.8186 12.6665 25.5761 12.6665 25.2125C12.6665 24.8489 12.3635 24.6064 12.0605 24.6064Z" fill="white"/>
<path d="M12.6059 20.9697H8.72715C8.36352 20.9697 8.12109 21.2122 8.12109 21.5758C8.12109 21.9394 8.36352 22.1818 8.72715 22.1818H12.6059C12.9696 22.1818 13.212 21.9394 13.212 21.5758C13.212 21.2122 12.909 20.9697 12.6059 20.9697Z" fill="white"/>
<path d="M35.6357 1.87917C34.7872 1.21251 33.5145 1.33372 32.8478 2.1822L24.969 11.6368V3.87917C24.969 2.06099 23.5145 0.606445 21.6963 0.606445H5.93874C4.12056 0.606445 2.66602 2.06099 2.66602 3.87917V34.9701V36.1822C2.66602 38.0004 4.12056 39.4549 5.93874 39.4549H21.6963C23.5145 39.4549 24.969 38.0004 24.969 36.1822V20.4246C24.969 20.364 24.969 20.2428 24.9084 20.1822L28.2418 15.5155C28.4236 15.3943 28.5448 15.2731 28.5448 15.0913L36.06 4.60645C36.666 3.75796 36.5448 2.54584 35.6357 1.87917ZM15.5145 37.4549H12.06C11.6963 37.4549 11.4539 37.2125 11.4539 36.8489C11.4539 36.4852 11.6963 36.2428 12.06 36.2428H15.5145C15.8781 36.2428 16.1206 36.4852 16.1206 36.8489C16.1206 37.1519 15.8781 37.4549 15.5145 37.4549ZM23.7569 13.0913L18.1206 19.8186C16.9084 20.1216 15.8781 21.1519 15.0903 22.9701C14.969 23.2731 14.7872 24.0004 14.5448 25.3337C14.2418 26.7883 13.9387 28.5458 13.5145 29.758C13.4539 29.9398 13.5145 30.1822 13.6357 30.3034C13.7569 30.4246 13.9387 30.5458 14.1206 30.5458H14.1812C14.363 30.5458 18.4842 30.061 20.7266 27.1519C21.8781 25.6974 22.3024 24.4852 22.4236 23.5761L23.7569 21.758V34.3034H3.87814V3.87917C3.87814 2.72766 4.78723 1.81857 5.93874 1.81857H8.66602V2.06099C8.66602 3.39432 9.75693 4.42463 11.0297 4.42463H16.5448C17.8781 4.42463 18.9084 3.33372 18.9084 2.06099V1.81857H21.6357C22.7872 1.81857 23.6963 2.72766 23.6963 3.87917V13.0913H23.7569ZM19.7569 26.4246C18.4236 28.1822 16.1812 28.9095 14.969 29.2125C15.2721 28.061 15.5145 26.7277 15.7569 25.5761C15.9387 24.6671 16.1206 23.6974 16.2418 23.4549C16.8478 22.061 17.6357 21.2125 18.4842 20.9701C19.2721 20.7883 20.06 21.2125 20.6054 21.6368C22.06 22.9701 20.7266 25.2125 19.7569 26.4246Z" fill="white"/>
<path d="M18.5444 9.21251V14.061C18.5444 14.4246 18.302 14.6671 17.9384 14.6671H9.63536C9.27172 14.6671 9.0293 14.4246 9.0293 14.061V9.21251C9.0293 8.90948 9.27172 8.60645 9.63536 8.60645H17.9384C18.302 8.60645 18.5444 8.84887 18.5444 9.21251Z" fill="white"/>
<path d="M8.72715 18.4856H15.9393C16.3029 18.4856 16.5453 18.2431 16.5453 17.8795C16.5453 17.5159 16.3029 17.2734 15.9393 17.2734H8.72715C8.36352 17.2734 8.12109 17.5159 8.12109 17.8795C8.12109 18.2431 8.36352 18.4856 8.72715 18.4856Z" fill="white"/>
<path d="M32.9693 16.2432C32.6057 16.2432 32.3633 16.4856 32.3633 16.8492V31.1523C32.3633 31.5159 32.6057 31.7583 32.9693 31.7583C33.333 31.7583 33.5754 31.5159 33.5754 31.1523V16.8492C33.5754 16.4856 33.2724 16.2432 32.9693 16.2432Z" fill="white"/>
<path d="M36.7272 10.7275C36.3635 10.7275 36.1211 10.97 36.1211 11.3336V31.0912C36.1211 31.4548 36.3635 31.6972 36.7272 31.6972C37.0908 31.6972 37.3332 31.4548 37.3332 31.0912V11.3336C37.3332 10.97 37.0302 10.7275 36.7272 10.7275Z" fill="white"/>
<path d="M29.151 21.8789C28.7873 21.8789 28.5449 22.1213 28.5449 22.485V31.1516C28.5449 31.5153 28.7873 31.7577 29.151 31.7577C29.5146 31.7577 29.757 31.5153 29.757 31.1516V22.485C29.757 22.1213 29.5146 21.8789 29.151 21.8789Z" fill="white"/>
</svg>
