<svg width="66" height="66" viewBox="0 0 66 66" fill="none" xmlns="http://www.w3.org/2000/svg">
<path d="M41.2595 14.0413C43.9048 14.5575 46.3359 15.8512 48.2417 17.757C50.1475 19.6628 51.4413 22.0939 51.9574 24.7393M41.2595 3.20801C46.7554 3.81856 51.8805 6.27973 55.7931 10.1874C59.7056 14.0951 62.1733 19.217 62.7907 24.7122M60.0824 46.3247V54.4497C60.0855 55.204 59.931 55.9506 59.6288 56.6417C59.3266 57.3328 58.8834 57.9531 58.3276 58.4631C57.7718 58.973 57.1156 59.3612 56.4011 59.6028C55.6866 59.8445 54.9294 59.9342 54.1782 59.8663C45.8442 58.9608 37.8389 56.113 30.8053 51.5518C24.2615 47.3936 18.7135 41.8456 14.5553 35.3018C9.97817 28.2363 7.12972 20.192 6.24073 11.8205C6.17305 11.0716 6.26206 10.3167 6.50209 9.60407C6.74212 8.89141 7.1279 8.23654 7.63489 7.68115C8.14188 7.12576 8.75895 6.68201 9.44683 6.37817C10.1347 6.07433 10.8783 5.91705 11.6303 5.91634H19.7553C21.0697 5.90341 22.3439 6.36885 23.3405 7.22591C24.3371 8.08297 24.988 9.27318 25.172 10.5747C25.5149 13.1749 26.1509 15.7279 27.0678 18.1851C27.4322 19.1545 27.5111 20.208 27.2951 21.2208C27.0791 22.2336 26.5772 23.1633 25.8491 23.8997L22.4095 27.3393C26.2649 34.1197 31.879 39.7338 38.6595 43.5893L42.0991 40.1497C42.8354 39.4215 43.7651 38.9197 44.7779 38.7037C45.7908 38.4877 46.8443 38.5665 47.8136 38.9309C50.2708 39.8478 52.8239 40.4838 55.4241 40.8268C56.7397 41.0124 57.9412 41.675 58.8001 42.6887C59.659 43.7024 60.1154 44.9964 60.0824 46.3247Z" stroke="#F9BD00" stroke-width="4" stroke-linecap="round" stroke-linejoin="round"/>
</svg>
