<svg width="40" height="40" viewBox="0 0 40 40" fill="none" xmlns="http://www.w3.org/2000/svg">
<path d="M33.6649 28.3677L29.4578 19.4724C29.5214 19.2735 29.5329 19.0618 29.4914 18.8572C29.4499 18.6526 29.3566 18.4621 29.2206 18.3038C27.707 16.9457 23.9737 20.4448 22.5042 21.7712C21.63 22.6088 17.3411 26.8602 18.7507 28.3325C18.9033 28.4728 19.0889 28.5724 19.2902 28.6219C19.4914 28.6715 19.702 28.6695 19.9023 28.6161L25.6791 31.659L22.8744 34.3458C22.7244 34.4888 22.6042 34.6601 22.5208 34.8498C22.4373 35.0396 22.3924 35.244 22.3884 35.4512C22.408 35.7588 22.495 36.0583 22.6432 36.3285C22.7914 36.5987 22.9973 36.833 23.2462 37.0148C23.536 37.3164 23.9335 37.4909 24.3517 37.4998C24.7699 37.5088 25.1746 37.3517 25.4772 37.0628L29.2397 33.4586C32.1902 34.4823 35.0808 31.1689 33.6649 28.3677ZM23.3699 22.6749C25.7591 20.3864 27.5842 19.3775 28.2382 19.2446C28.0772 19.8922 26.9907 21.6724 24.6015 23.9609C22.2125 26.2493 20.3871 27.2583 19.7331 27.3914C19.8944 26.7436 20.9806 24.9637 23.3699 22.6749ZM25.4671 24.8644C26.7224 23.7006 27.8344 22.3912 28.7794 20.9639L31.9661 27.7017L28.0226 31.4794L21.4317 28.0078C22.8879 27.111 24.2412 26.0569 25.4671 24.8644ZM24.6118 36.1593C24.2798 36.4769 23.9432 35.8967 23.73 35.7111C23.6701 35.6485 23.6376 35.5647 23.6395 35.4781C23.6414 35.3915 23.6775 35.3092 23.74 35.2493L26.8463 32.2738L28.0215 32.8928L24.6118 36.1593ZM32.7247 30.3883C32.6528 30.7628 32.4943 31.1154 32.2619 31.4177C32.0294 31.7201 31.7294 31.9639 31.3859 32.1297C31.0424 32.2954 30.6649 32.3785 30.2835 32.3723C29.9022 32.3662 29.5276 32.2709 29.1896 32.0941L32.5301 28.8942C32.7535 29.3585 32.8218 29.8823 32.7247 30.3883Z" fill="white"/>
<path d="M23.3371 14.9355C23.255 14.9387 23.1743 14.958 23.0997 14.9924C23.0251 15.0268 22.958 15.0756 22.9023 15.1359C22.8465 15.1962 22.8032 15.267 22.7748 15.3441C22.7464 15.4212 22.7335 15.5031 22.7368 15.5852L22.8325 18.0105C22.8357 18.0926 22.8551 18.1732 22.8895 18.2478C22.9239 18.3223 22.9727 18.3894 23.033 18.4452C23.0933 18.5009 23.164 18.5442 23.2411 18.5726C23.3182 18.601 23.4001 18.614 23.4822 18.6107C23.5642 18.6075 23.6449 18.5881 23.7194 18.5537C23.794 18.5193 23.8611 18.4705 23.9168 18.4102C23.9726 18.3498 24.0159 18.2791 24.0443 18.2021C24.0727 18.125 24.0856 18.0431 24.0824 17.961L23.9868 15.5357C23.9847 15.4532 23.9661 15.3721 23.9321 15.2969C23.898 15.2218 23.8493 15.1543 23.7887 15.0983C23.7282 15.0423 23.657 14.9991 23.5794 14.9711C23.5018 14.9432 23.4194 14.931 23.3371 14.9355Z" fill="white"/>
<path d="M16.3143 21.7376C16.1507 21.7271 15.9894 21.7812 15.8653 21.8883C15.7412 21.9954 15.6641 22.147 15.6506 22.3104C15.637 22.4738 15.6882 22.636 15.793 22.762C15.8978 22.8881 16.0479 22.968 16.2111 22.9845L18.6299 23.1843C18.7934 23.1945 18.9544 23.1403 19.0783 23.0332C19.2022 22.9261 19.2792 22.7746 19.2927 22.6114C19.3062 22.4482 19.2551 22.2862 19.1505 22.1601C19.0459 22.0341 18.8961 21.9541 18.7331 21.9374L16.3143 21.7376Z" fill="white"/>
<path d="M20.2175 20.2883C20.3332 20.4044 20.4897 20.4705 20.6535 20.4724C20.8174 20.4743 20.9754 20.4119 21.0937 20.2985C21.2121 20.1852 21.2812 20.0299 21.2863 19.8661C21.2914 19.7024 21.232 19.5431 21.121 19.4226L19.6692 17.9067C19.6124 17.8474 19.5444 17.7998 19.4692 17.7667C19.394 17.7337 19.313 17.7158 19.2308 17.714C19.1487 17.7123 19.067 17.7267 18.9904 17.7565C18.9139 17.7863 18.8439 17.8309 18.7846 17.8877C18.7253 17.9446 18.6777 18.0126 18.6447 18.0878C18.6116 18.163 18.5937 18.244 18.5919 18.3261C18.5902 18.4083 18.6046 18.49 18.6344 18.5665C18.6642 18.6431 18.7088 18.713 18.7657 18.7723L20.2175 20.2883Z" fill="white"/>
<path d="M11.9243 24.083C10.3443 24.0848 8.82951 24.7132 7.71228 25.8304C6.59505 26.9477 5.96662 28.4625 5.96484 30.0425C6.29223 37.9481 17.5576 37.9458 17.8838 30.0424C17.882 28.4624 17.2535 26.9477 16.1363 25.8304C15.0191 24.7132 13.5043 24.0848 11.9243 24.083ZM11.9243 34.7505C10.676 34.7491 9.47932 34.2526 8.59664 33.37C7.71397 32.4874 7.21744 31.2907 7.21599 30.0425C7.43724 23.811 16.4123 23.8126 16.6326 30.0425C16.6311 31.2908 16.1346 32.4875 15.2519 33.37C14.3692 34.2526 13.1725 34.7491 11.9243 34.7505Z" fill="white"/>
<path d="M11.9243 21.5199C13.5043 21.5182 15.0191 20.8897 16.1363 19.7725C17.2535 18.6553 17.882 17.1405 17.8837 15.5605C17.5565 7.65447 6.29093 7.65675 5.96484 15.5605C5.96664 17.1405 6.59508 18.6553 7.71231 19.7725C8.82954 20.8897 10.3443 21.5182 11.9243 21.5199ZM11.9243 10.8522C13.1726 10.8536 14.3693 11.3501 15.252 12.2328C16.1347 13.1155 16.6312 14.3122 16.6326 15.5605C16.4114 21.792 7.43631 21.7904 7.216 15.5604C7.21746 14.3122 7.71398 13.1154 8.59664 12.2328C9.47931 11.3501 10.676 10.8536 11.9243 10.8522Z" fill="white"/>
<path d="M25.0082 14.559C26.6109 14.5572 28.1474 13.9197 29.2807 12.7863C30.414 11.653 31.0514 10.1164 31.0532 8.51373C30.721 0.494092 19.2938 0.496747 18.9629 8.51375C18.9647 10.1165 19.6022 11.6531 20.7355 12.7864C21.8688 13.9197 23.4054 14.5572 25.0082 14.559ZM25.0082 3.7199C26.2792 3.72131 27.4977 4.22683 28.3964 5.12554C29.2951 6.02426 29.8006 7.24278 29.802 8.51375C29.5611 14.8652 20.4541 14.8632 20.214 8.51369C20.2155 7.24269 20.7211 6.02418 21.6199 5.12548C22.5186 4.22678 23.7372 3.72129 25.0082 3.7199Z" fill="white"/>
<path d="M9.84397 16.4413H10.8165V18.6711C10.8197 18.8349 10.8871 18.991 11.004 19.1057C11.121 19.2204 11.2783 19.2846 11.4421 19.2846C11.606 19.2846 11.7633 19.2203 11.8802 19.1056C11.9972 18.9909 12.0645 18.8349 12.0677 18.6711V16.4413H13.2492C13.4151 16.4413 13.5743 16.3754 13.6916 16.2581C13.8089 16.1408 13.8748 15.9816 13.8748 15.8157C13.8748 15.6498 13.8089 15.4907 13.6916 15.3734C13.5743 15.2561 13.4151 15.1902 13.2492 15.1902H12.0677V14.1333C12.0678 13.9454 12.1179 13.7609 12.2129 13.5988C12.3079 13.4367 12.4445 13.3029 12.6084 13.2111C12.7724 13.1193 12.9578 13.0729 13.1456 13.0766C13.3335 13.0803 13.517 13.134 13.6772 13.2322C13.8183 13.3152 13.9864 13.3395 14.1453 13.3C14.3042 13.2605 14.4413 13.1602 14.5271 13.0207C14.6129 12.8813 14.6406 12.7137 14.6043 12.554C14.5679 12.3944 14.4704 12.2553 14.3326 12.1667C13.9821 11.9564 13.5823 11.8424 13.1735 11.8362C12.7648 11.83 12.3616 11.9318 12.0049 12.1314C11.6481 12.3309 11.3503 12.6211 11.1417 12.9726C10.933 13.3242 10.8209 13.7246 10.8166 14.1333L10.8166 15.1902H9.84397C9.68017 15.1933 9.52415 15.2607 9.40944 15.3776C9.29473 15.4946 9.23047 15.6519 9.23047 15.8157C9.23047 15.9796 9.29473 16.1369 9.40944 16.2538C9.52415 16.3708 9.68017 16.4381 9.84397 16.4413Z" fill="white"/>
<path d="M23.2579 11.8728H26.7569C27.1835 11.8724 27.5926 11.7027 27.8943 11.4011C28.1961 11.0994 28.3658 10.6904 28.3663 10.2637V6.76472C28.3658 6.33803 28.1961 5.92896 27.8944 5.62724C27.5926 5.32552 27.1836 5.15579 26.7569 5.15527H23.2579C22.8312 5.15579 22.4221 5.32552 22.1204 5.62724C21.8187 5.92896 21.649 6.33803 21.6484 6.76472V10.2637C21.649 10.6904 21.8187 11.0994 22.1204 11.4011C22.4222 11.7027 22.8312 11.8724 23.2579 11.8728ZM22.8996 6.76472C22.8997 6.66972 22.9374 6.57864 23.0046 6.51146C23.0718 6.44429 23.1629 6.40651 23.2579 6.40642H26.7569C26.8519 6.40651 26.943 6.44429 27.0101 6.51146C27.0773 6.57864 27.1151 6.66972 27.1152 6.76472V10.2637C27.115 10.3587 27.0772 10.4497 27.0101 10.5168C26.9429 10.5839 26.8518 10.6216 26.7569 10.6217H23.2579C23.1629 10.6216 23.0719 10.5839 23.0047 10.5168C22.9375 10.4497 22.8997 10.3587 22.8996 10.2637V6.76472Z" fill="white"/>
<path d="M25.0081 10.2305C25.4601 10.2254 25.8918 10.0423 26.2096 9.72085C26.5274 9.39944 26.7056 8.96567 26.7056 8.51367C26.7056 8.06167 26.5274 7.6279 26.2096 7.30649C25.8918 6.98509 25.46 6.80197 25.0081 6.79688C24.5561 6.80198 24.1244 6.98511 23.8066 7.30653C23.4888 7.62795 23.3105 8.06172 23.3105 8.51372C23.3106 8.96572 23.4888 9.39948 23.8066 9.72089C24.1244 10.0423 24.5561 10.2254 25.0081 10.2305ZM25.0081 8.04801C25.13 8.05041 25.2461 8.10053 25.3315 8.1876C25.4169 8.27466 25.4647 8.39174 25.4647 8.51367C25.4647 8.63561 25.4169 8.75268 25.3315 8.83975C25.2461 8.92681 25.13 8.97693 25.0081 8.97934C24.8863 8.97681 24.7703 8.92664 24.685 8.83959C24.5998 8.75254 24.552 8.63554 24.552 8.51368C24.552 8.39183 24.5998 8.27482 24.685 8.18777C24.7703 8.10072 24.8863 8.05053 25.0081 8.04801Z" fill="white"/>
<path d="M12.9221 27.0203C12.8326 26.9384 12.7212 26.8842 12.6016 26.8641C12.4819 26.8441 12.359 26.859 12.2477 26.9071C12.1363 26.9552 12.0412 27.0345 11.9738 27.1353C11.9064 27.2362 11.8695 27.3544 11.8677 27.4757V31.289C11.883 31.4552 11.8326 31.6208 11.7274 31.7505C11.6223 31.8801 11.4706 31.9634 11.3048 31.9827H10.762C10.3806 31.9773 10.3793 31.1992 10.762 31.194C10.8473 31.2012 10.9332 31.1902 11.014 31.1618C11.0948 31.1333 11.1687 31.088 11.2307 31.0289C11.2927 30.9697 11.3414 30.8981 11.3736 30.8187C11.4059 30.7394 11.4209 30.654 11.4177 30.5684C11.4109 30.3995 11.3386 30.2398 11.2163 30.1231C11.0939 30.0064 10.931 29.9418 10.7619 29.9429C10.3434 29.9692 9.95068 30.1541 9.66363 30.4597C9.37658 30.7654 9.2168 31.169 9.2168 31.5884C9.2168 32.0077 9.37658 32.4113 9.66363 32.717C9.95068 33.0227 10.3434 33.2075 10.7619 33.2338H11.3047C11.8028 33.2154 12.2733 33.0004 12.6133 32.6359C12.9532 32.2715 13.135 31.7872 13.1188 31.289V28.8866C14.5539 30.1197 14.7906 29.9557 15.1012 29.7431C15.2052 29.6688 15.284 29.5647 15.3274 29.4445C15.3707 29.3243 15.3765 29.1938 15.3439 29.0703C15.3113 28.9467 15.2419 28.836 15.145 28.7529C15.048 28.6697 14.928 28.618 14.8009 28.6047C14.1379 28.1218 13.51 27.5923 12.9221 27.0203Z" fill="white"/>
</svg>
