<svg width="32" height="32" viewBox="0 0 32 32" fill="none" xmlns="http://www.w3.org/2000/svg">
<path d="M20.125 25.0625C22.882 25.0625 25.125 27.3055 25.125 30.0625C25.125 30.4076 25.4049 30.6875 25.75 30.6875C26.0951 30.6875 26.375 30.4076 26.375 30.0625C26.375 27.3055 28.618 25.0625 31.375 25.0625C31.7201 25.0625 32 24.7826 32 24.4375C32 24.0924 31.7201 23.8125 31.375 23.8125C28.618 23.8125 26.375 21.5695 26.375 18.8125C26.375 18.4674 26.0951 18.1875 25.75 18.1875C25.4049 18.1875 25.125 18.4674 25.125 18.8125C25.125 21.5695 22.882 23.8125 20.125 23.8125C19.7799 23.8125 19.5 24.0924 19.5 24.4375C19.5 24.7826 19.7799 25.0625 20.125 25.0625ZM25.75 21.5357C26.3635 22.7978 27.3896 23.8239 28.6518 24.4375C27.3897 25.051 26.3636 26.0771 25.75 27.3393C25.1365 26.0772 24.1104 25.0511 22.8482 24.4375C24.1104 23.824 25.1365 22.7979 25.75 21.5357Z" fill="#F9BD00"/>
<path d="M0.625 6.3125C2.34812 6.3125 3.75 7.71438 3.75 9.4375C3.75 9.78263 4.02981 10.0625 4.375 10.0625C4.72019 10.0625 5 9.78263 5 9.4375C5 7.71438 6.40188 6.3125 8.125 6.3125C8.47019 6.3125 8.75 6.03263 8.75 5.6875C8.75 5.34237 8.47019 5.0625 8.125 5.0625C6.40188 5.0625 5 3.66062 5 1.9375C5 1.59238 4.72019 1.3125 4.375 1.3125C4.02981 1.3125 3.75 1.59238 3.75 1.9375C3.75 3.66062 2.34812 5.0625 0.625 5.0625C0.279813 5.0625 0 5.34237 0 5.6875C0 6.03263 0.279813 6.3125 0.625 6.3125ZM4.375 4.189C4.74456 4.80213 5.26038 5.318 5.87344 5.6875C5.26031 6.057 4.7445 6.57288 4.375 7.186C4.00544 6.57288 3.48962 6.057 2.87656 5.6875C3.48962 5.318 4.00544 4.80213 4.375 4.189Z" fill="#F9BD00"/>
<path d="M17.4375 19C17.7827 19 18.0625 18.7202 18.0625 18.375C18.0625 18.0298 17.7827 17.75 17.4375 17.75C17.0923 17.75 16.8125 18.0298 16.8125 18.375C16.8125 18.7202 17.0923 19 17.4375 19Z" fill="#F9BD00"/>
<path d="M19.1049 16.9496C19.2809 17.2464 19.6645 17.3443 19.9613 17.1681C21.5937 16.1995 23.4657 15.6875 25.375 15.6875C25.7201 15.6875 26 15.4076 26 15.0625C26 14.7174 25.7201 14.4375 25.375 14.4375C19.5164 14.4375 14.75 9.67112 14.75 3.8125C14.75 3.46738 14.4702 3.1875 14.125 3.1875C13.7798 3.1875 13.5 3.46738 13.5 3.8125C13.5 9.67112 8.73362 14.4375 2.875 14.4375C2.52981 14.4375 2.25 14.7174 2.25 15.0625C2.25 15.4076 2.52981 15.6875 2.875 15.6875C8.73362 15.6875 13.5 20.4539 13.5 26.3125C13.5 26.6576 13.7798 26.9375 14.125 26.9375C14.4702 26.9375 14.75 26.6576 14.75 26.3125C14.75 24.4032 15.262 22.5312 16.2306 20.8988C16.4067 20.6019 16.3089 20.2185 16.0121 20.0424C15.7151 19.8661 15.3317 19.9641 15.1557 20.2609C14.7329 20.9733 14.3881 21.7262 14.1246 22.5066C12.94 19.0143 10.1721 16.2467 6.67969 15.0625C10.1724 13.8781 12.9406 11.1099 14.125 7.61719C15.3092 11.1096 18.0768 13.8775 21.569 15.0621C20.7887 15.3256 20.0357 15.6704 19.3233 16.0932C19.0266 16.2694 18.9287 16.6528 19.1049 16.9496Z" fill="#F9BD00"/>
</svg>
