<svg width="40" height="40" viewBox="0 0 40 40" fill="none" xmlns="http://www.w3.org/2000/svg">
<path d="M36.6438 26.0559L31.9813 23.3684L36.6438 20.6746C36.7618 20.6059 36.8597 20.5073 36.9278 20.3889C36.9958 20.2705 37.0317 20.1362 37.0317 19.9996C37.0317 19.863 36.9958 19.7288 36.9278 19.6104C36.8597 19.4919 36.7618 19.3934 36.6438 19.3246L31.9875 16.6309L36.6188 13.9559C36.7497 13.8882 36.8583 13.784 36.9313 13.6559C36.983 13.5673 37.0168 13.4693 37.0306 13.3676C37.0445 13.2659 37.0382 13.1625 37.0121 13.0633C36.9859 12.964 36.9405 12.8709 36.8784 12.7892C36.8163 12.7075 36.7387 12.6388 36.65 12.5871L20.4 3.21215C20.2808 3.14478 20.1463 3.10938 20.0094 3.10938C19.8725 3.10938 19.7379 3.14478 19.6188 3.21215L3.36876 12.5871C3.24926 12.6555 3.14996 12.7542 3.08089 12.8733C3.01182 12.9924 2.97545 13.1276 2.97545 13.2653C2.97545 13.4029 3.01182 13.5382 3.08089 13.6572C3.14996 13.7763 3.24926 13.875 3.36876 13.9434L8.02501 16.6309L3.36251 19.3246C3.24448 19.3934 3.14655 19.4919 3.07849 19.6104C3.01043 19.7288 2.97461 19.863 2.97461 19.9996C2.97461 20.1362 3.01043 20.2705 3.07849 20.3889C3.14655 20.5073 3.24448 20.6059 3.36251 20.6746L8.02501 23.3684L3.36876 26.0559C3.24926 26.1243 3.14996 26.223 3.08089 26.3421C3.01182 26.4611 2.97545 26.5964 2.97545 26.734C2.97545 26.8717 3.01182 27.0069 3.08089 27.126C3.14996 27.2451 3.24926 27.3438 3.36876 27.4121L19.6188 36.7871C19.7362 36.8487 19.8675 36.8788 20 36.8746C20.1382 36.8736 20.2738 36.837 20.3938 36.7684L36.6438 27.3934C36.7617 27.3238 36.8594 27.2246 36.9273 27.1057C36.9952 26.9868 37.0309 26.8522 37.0309 26.7153C37.0309 26.5783 36.9952 26.4438 36.9273 26.3249C36.8594 26.2059 36.7617 26.1068 36.6438 26.0371V26.0559ZM5.31251 19.9996L9.58126 17.5371L19.5813 23.3246C19.6987 23.3938 19.8325 23.4305 19.9688 23.4309C20.1069 23.4298 20.2425 23.3932 20.3625 23.3246L30.3625 17.5371L34.6875 19.9996L20 28.4809L5.31251 19.9996ZM20 35.2121L5.31251 26.7371L9.58126 24.2371L19.5813 30.0246C19.6986 30.0939 19.8325 30.1304 19.9688 30.1304C20.1051 30.1304 20.2389 30.0939 20.3563 30.0246L30.3875 24.2371L34.6563 26.7371L20 35.2121Z" fill="white"/>
</svg>
