<svg width="24" height="24" viewBox="0 0 24 24" fill="none" xmlns="http://www.w3.org/2000/svg">
<path d="M11.4863 0.972656C7.99475 0.972656 5.14648 3.83067 5.14648 7.32224C5.14648 9.45661 6.21449 11.3477 7.83984 12.498C4.04878 14.017 1.35938 17.7237 1.35938 22.0488C1.36518 22.3101 1.47308 22.5588 1.65998 22.7416C1.84689 22.9244 2.09794 23.0269 2.35938 23.0269C2.62081 23.0269 2.87186 22.9244 3.05877 22.7416C3.24567 22.5588 3.35357 22.3101 3.35938 22.0488C3.35938 17.4587 7.06032 13.7597 11.6504 13.7597C13.2526 13.7597 14.7399 14.2165 16.0059 15C16.1179 15.0696 16.2427 15.1164 16.3729 15.1377C16.5031 15.159 16.6362 15.1545 16.7647 15.1243C16.8931 15.0941 17.0144 15.0389 17.1214 14.9618C17.2285 14.8847 17.3193 14.7873 17.3887 14.6751C17.4581 14.5628 17.5046 14.438 17.5256 14.3077C17.5467 14.1774 17.5418 14.0443 17.5113 13.9159C17.4808 13.7875 17.4253 13.6664 17.348 13.5595C17.2706 13.4526 17.173 13.362 17.0605 13.2929C16.4901 12.9399 15.8709 12.6635 15.2324 12.4258C16.8053 11.2696 17.8359 9.41401 17.8359 7.32224C17.8359 3.83067 14.9779 0.972656 11.4863 0.972656ZM11.4863 2.97453C13.897 2.97453 15.8359 4.91154 15.8359 7.32224C15.8359 9.73293 13.897 11.6621 11.4863 11.6621C9.07563 11.6621 7.14648 9.73293 7.14648 7.32224C7.14649 4.91154 9.07563 2.97453 11.4863 2.97453ZM21.6074 14.9766C21.4449 14.9813 21.2859 15.0254 21.1444 15.1054C21.0028 15.1854 20.8828 15.2987 20.7949 15.4355L17.3477 20.6016L15.1855 19.1543C15.0759 19.0805 14.9528 19.0292 14.8233 19.0032C14.6938 18.9771 14.5604 18.9769 14.4308 19.0025C14.3012 19.0281 14.1779 19.0791 14.068 19.1524C13.9581 19.2257 13.8638 19.3201 13.7904 19.4299C13.717 19.5398 13.6661 19.663 13.6404 19.7926C13.6148 19.9222 13.615 20.0557 13.641 20.1852C13.667 20.3147 13.7183 20.4378 13.792 20.5475C13.8656 20.6571 13.9602 20.7511 14.0703 20.8242L17.0762 22.8242C17.1857 22.8968 17.3084 22.9472 17.4374 22.9724C17.5664 22.9976 17.699 22.997 17.8278 22.9709C17.9566 22.9448 18.079 22.8936 18.1879 22.8202C18.2969 22.7467 18.3903 22.6526 18.4629 22.543L22.4648 16.5411C22.5692 16.3886 22.6293 16.2102 22.6384 16.0256C22.6476 15.841 22.6054 15.6575 22.5166 15.4955C22.4278 15.3334 22.2958 15.1992 22.1353 15.1076C21.9748 15.016 21.7921 14.9706 21.6074 14.9766Z" fill="#F9BD00"/>
</svg>
