<svg width="40" height="40" viewBox="0 0 40 40" fill="none" xmlns="http://www.w3.org/2000/svg">
<path d="M5.28254 5.28254H29.3354V8.82972H32.3542V4.69388C32.3542 3.35047 31.2599 2.26367 29.924 2.26367H4.69384C3.35047 2.26367 2.26367 3.35047 2.26367 4.69388V23.0939C2.26367 24.4373 3.35047 25.5316 4.69384 25.5316H18.8071V21.3958H5.28254V5.28254ZM17.3052 22.709H17.3127C17.7278 22.709 18.0674 23.0411 18.0674 23.4637C18.0674 23.8788 17.7278 24.2184 17.3127 24.2184C16.8976 24.2184 16.5505 23.8788 16.5505 23.4637C16.5505 23.0411 16.8901 22.709 17.3052 22.709Z" fill="white"/>
<path d="M11.6593 30.5127H10.5575C10.1424 30.5127 9.80273 30.8523 9.80273 31.2674C9.80273 31.6825 10.1424 32.0221 10.5575 32.0221H18.8065V27.041H14.0065C14.3537 27.9769 13.9461 28.7995 11.6593 30.5127Z" fill="white"/>
<path d="M34.7164 10.3389H23.3353C21.6673 10.3389 20.3164 11.6898 20.3164 13.3577V34.7162C20.3164 36.3842 21.6673 37.7351 23.3353 37.7351H34.7164C36.3843 37.7351 37.7353 36.3842 37.7353 34.7162V13.3577C37.7353 11.6898 36.3843 10.3389 34.7164 10.3389ZM29.5466 35.086H28.5051C28.0824 35.086 27.7504 34.7464 27.7504 34.3313C27.7504 33.9087 28.0824 33.5766 28.5051 33.5766H29.5466C29.9692 33.5766 30.3013 33.9087 30.3013 34.3313C30.3013 34.7464 29.9692 35.086 29.5466 35.086ZM35.8485 31.6747H22.2108V13.4407C22.2108 12.92 22.6334 12.4898 23.1541 12.4898H34.8975C35.4183 12.4898 35.8485 12.92 35.8485 13.4407V31.6747Z" fill="white"/>
<path d="M17.7513 9.96924L13.4569 6.76925C13.1853 6.57301 12.8155 6.57301 12.5513 6.76925L8.26449 9.96924C8.0683 10.1126 7.95508 10.339 7.95508 10.573C7.95508 10.8145 8.0683 11.0334 8.26449 11.1768L12.5513 14.3768C12.6872 14.4749 12.8456 14.5277 13.0041 14.5277C13.1626 14.5277 13.3211 14.4749 13.4569 14.3768L17.7513 11.1768C17.9475 11.0409 18.0608 10.8145 18.0608 10.573C18.0608 10.339 17.9475 10.1126 17.7513 9.96924Z" fill="white"/>
<path d="M16.6192 13.9014L14.3626 15.5844C13.94 15.8863 13.4796 16.0372 13.0041 16.0372C12.5287 16.0372 12.0607 15.8863 11.6683 15.5995L9.38906 13.9014L8.25698 14.7391C8.0683 14.8825 7.95508 15.1089 7.95508 15.3429C7.95508 15.5844 8.0683 15.8108 8.25698 15.9542L12.5513 19.1542C12.6872 19.2523 12.8456 19.2976 13.0041 19.2976C13.1626 19.2976 13.3211 19.2523 13.4569 19.1542L17.7588 15.9542C17.9475 15.8108 18.0608 15.5844 18.0608 15.3504C18.0608 15.1089 17.9475 14.8825 17.7513 14.7391L16.6192 13.9014Z" fill="white"/>
<path d="M28.6507 22.4475C28.8713 22.612 29.1737 22.6121 29.3944 22.4478L32.7492 19.9513C33.0836 19.7025 33.0836 19.2015 32.7492 18.9526L29.3944 16.4561C29.1737 16.2918 28.8713 16.292 28.6507 16.4565L25.3031 18.953C24.9693 19.2019 24.9693 19.702 25.3031 19.951L28.6507 22.4475Z" fill="white"/>
<path d="M31.7207 22.6035L30.2943 23.6601C29.9245 23.9318 29.4868 24.0828 29.0264 24.0828C28.5585 24.0828 28.1207 23.9318 27.7509 23.6601L26.332 22.6035L25.0415 23.562C24.8377 23.713 24.8377 24.0148 25.0415 24.1733L28.7924 26.9658C28.9283 27.0639 29.117 27.0639 29.2528 26.9658L33.0113 24.1733C33.2151 24.0148 33.2151 23.713 33.0113 23.562L31.7207 22.6035Z" fill="white"/>
</svg>
